# xmcd
#
# Track frame offsets:
# 150
# 18461
# 43055
# 61742
# 82912
# 104599
# 121566
# 139325
# 158671
# 180705
# 197045
# 217633
#
# Disc length: 3144 seconds
#
#
# Revision: 3
# Processed by: cddbd v1.5.1PL0 Copyright (c) Steve Scherf et al.
# Submitted via: FreeRIP 2.52 
#
DISCID=960c460c
DTITLE=Destiny's Child - Destiny Fulfilled
DYEAR=2004
DGENRE=Hip-Hop
TTITLE0=Lose My Breath
TTITLE1=Soldier (ft. T.I. and Lil Wayn)
TTITLE2=Cater 2 U
TTITLE3=T-Shirt
TTITLE4=Is She The Reason
TTITLE5=Girl
TTITLE6=Bad Habit
TTITLE7=If
TTITLE8=Free
TTITLE9=Through With Love
TTITLE10=Love
TTITLE11=Game Over (Bonus Track)
EXTD=
EXTT0=
EXTT1=
EXTT2=
EXTT3=
EXTT4=
EXTT5=
EXTT6=
EXTT7=
EXTT8=
EXTT9=
EXTT10=
EXTT11=
PLAYORDER=
